<svg width="388" height="387" viewBox="0 0 388 387" fill="none" xmlns="http://www.w3.org/2000/svg">
<g clip-path="url(#clip0_120_3)">
<mask id="mask0_120_3" style="mask-type:luminance" maskUnits="userSpaceOnUse" x="0" y="0" width="388" height="387">
<path d="M312 0H76C34.0264 0 0 34.0264 0 76V311C0 352.974 34.0264 387 76 387H312C353.974 387 388 352.974 388 311V76C388 34.0264 353.974 0 312 0Z" fill="white"/>
</mask>
<g mask="url(#mask0_120_3)">
<path d="M312 3H76C36.2355 3 4 35.2355 4 75V311C4 350.764 36.2355 383 76 383H312C351.764 383 384 350.764 384 311V75C384 35.2355 351.764 3 312 3Z" fill="#0D0E0F" stroke="#7963D2" stroke-width="8"/>
<path d="M43 1V387" stroke="#313131" stroke-opacity="0.25"/>
<path d="M388 41H2" stroke="#313131" stroke-opacity="0.25"/>
<path d="M94 1V387" stroke="#313131" stroke-opacity="0.25"/>
<path d="M388 92H2" stroke="#313131" stroke-opacity="0.25"/>
<path d="M145 1V387" stroke="#313131" stroke-opacity="0.25"/>
<path d="M388 143H2" stroke="#313131" stroke-opacity="0.25"/>
<path d="M195 1V387" stroke="#313131" stroke-opacity="0.25"/>
<path d="M388 194H2" stroke="#313131" stroke-opacity="0.25"/>
<path d="M246 1V387" stroke="#313131" stroke-opacity="0.25"/>
<path d="M388 245H2" stroke="#313131" stroke-opacity="0.25"/>
<path d="M297 1V387" stroke="#313131" stroke-opacity="0.25"/>
<path d="M388 296H2" stroke="#313131" stroke-opacity="0.25"/>
<path d="M348 1V387" stroke="#313131" stroke-opacity="0.25"/>
<path d="M388 347H2" stroke="#313131" stroke-opacity="0.25"/>
<path d="M250 260C250 256.134 253.134 253 257 253H282C285.866 253 289 256.134 289 260V285C289 288.866 285.866 292 282 292H257C253.134 292 250 288.866 250 285V260Z" fill="#0D0E0F"/>
</g>
<path d="M76 11H312C347.898 11 377 40.1015 377 76V311C377 346.898 347.898 376 312 376H76C40.1015 376 11 346.898 11 311V76C11 40.1015 40.1015 11 76 11Z" stroke="#7963D2" stroke-width="14"/>
<path d="M88 247C85.7909 247 84 245.209 84 243V153C84 150.791 85.7909 149 88 149H111.118C112.329 149 113.474 149.548 114.233 150.49L138.95 181.164C140.551 183.151 143.578 183.151 145.179 181.164L169.896 150.49C170.655 149.548 171.8 149 173.011 149H196.129C198.338 149 200.129 150.791 200.129 153V243C200.129 245.209 198.338 247 196.129 247H175.097C172.888 247 171.097 245.209 171.097 243V202.133C171.097 198.359 166.35 196.685 163.982 199.623L145.179 222.958C143.578 224.945 140.551 224.945 138.95 222.958L120.147 199.623C117.779 196.685 113.032 198.359 113.032 202.133V243C113.032 245.209 111.241 247 109.032 247H88ZM268.402 243.778C266.816 245.51 264.087 245.51 262.502 243.778L228.039 206.142C225.69 203.576 227.51 199.441 230.99 199.441H246.935C249.145 199.441 250.935 197.65 250.935 195.441V153C250.935 150.791 252.726 149 254.935 149H275.968C278.177 149 279.968 150.791 279.968 153V195.441C279.968 197.65 281.759 199.441 283.968 199.441H299.914C303.393 199.441 305.214 203.576 302.864 206.142L268.402 243.778Z" fill="#7963D2"/>
<path d="M82 239C79.7909 239 78 237.209 78 235V144C78 141.791 79.7909 140 82 140H105.106C106.323 140 107.474 140.554 108.233 141.506L132.937 172.477C134.539 174.484 137.59 174.484 139.192 172.477L163.896 141.506C164.655 140.554 165.806 140 167.023 140H190.129C192.338 140 194.129 141.791 194.129 144V235C194.129 237.209 192.338 239 190.129 239H169.097C166.888 239 165.097 237.209 165.097 235V193.65C165.097 189.866 160.329 188.197 157.97 191.156L139.192 214.697C137.59 216.705 134.539 216.705 132.937 214.697L114.159 191.156C111.8 188.197 107.032 189.866 107.032 193.65V235C107.032 237.209 105.241 239 103.032 239H82ZM262.415 235.73C260.828 237.482 258.076 237.482 256.488 235.73L221.964 197.642C219.634 195.071 221.458 190.956 224.928 190.956H240.935C243.145 190.956 244.935 189.165 244.935 186.956V144C244.935 141.791 246.726 140 248.935 140H269.968C272.177 140 273.968 141.791 273.968 144V186.956C273.968 189.165 275.759 190.956 277.968 190.956H293.976C297.445 190.956 299.27 195.071 296.939 197.642L262.415 235.73Z" fill="white"/>
</g>
<defs>
<clipPath id="clip0_120_3">
<rect width="388" height="387" fill="white"/>
</clipPath>
</defs>
</svg>
